<?xml version="1.0" encoding="UTF-8"?>
<svg width="32px" height="32px" viewBox="0 0 32 32" version="1.1" xmlns="http://www.w3.org/2000/svg" xmlns:xlink="http://www.w3.org/1999/xlink">
    <!-- Generator: sketchtool 51.2 (57519) - http://www.bohemiancoding.com/sketch -->
    <title>77F8C0D4-CBD8-4D81-B58D-B6F8D630FA0D</title>
    <desc>Created with sketchtool.</desc>
    <defs></defs>
    <g id="Symbols" stroke="none" stroke-width="1" fill="none" fill-rule="evenodd">
        <g id="mob/ic/1ยบ/apolices">
            <g>
                <rect id="area" fill-rule="nonzero" x="0" y="0" width="32" height="32"></rect>
                <path d="M24.649123,4 L11.736844,4 C11.1558353,4.00201594 10.6168756,4.30870468 10.3108793,4.81142857 L5.81965179,9.38285714 C5.31031406,9.69296103 4.9989287,10.2530434 5.00000277,10.8571429 L5.00000277,26.2857143 C5.00000277,27.2324881 5.75404941,28 6.68421308,28 L24.649123,28 C25.5792867,28 26.3333333,27.2324881 26.3333333,26.2857143 L26.3333333,5.71428571 C26.3333333,4.76751186 25.5792867,4 24.649123,4 Z M10.0526337,7.49714286 L10.0526337,9.14285714 L8.4357918,9.14285714 L10.0526337,7.49714286 Z M24.649123,26.2857143 L6.68421308,26.2857143 L6.68421308,10.9142857 L6.71789728,10.9142857 L6.75158149,10.88 L11.736844,10.88 L11.736844,5.80571429 L11.7705282,5.77142857 L11.7705282,5.73714286 L24.6266669,5.73714286 L24.649123,26.2857143 Z" id="Shape" fill="#9966FF"></path>
                <path d="M21.2173913,17 L10.7826087,17 C10.3503858,17 10,17.2984768 10,17.6666667 C10,18.0348565 10.3503858,18.3333333 10.7826087,18.3333333 L21.2173913,18.3333333 C21.6496142,18.3333333 22,18.0348565 22,17.6666667 C22,17.2984768 21.6496142,17 21.2173913,17 Z" id="Shape" fill="#9966FF"></path>
                <path d="M19.8666667,21 L10.8,21 C10.3581722,21 10,21.2984768 10,21.6666667 C10,22.0348565 10.3581722,22.3333333 10.8,22.3333333 L19.8666667,22.3333333 C20.3084945,22.3333333 20.6666667,22.0348565 20.6666667,21.6666667 C20.6666667,21.2984768 20.3084945,21 19.8666667,21 Z" id="Shape" fill="#9966FF"></path>
                <path d="M17.6666667,14.6666667 L21,14.6666667 C21.9204746,14.6666667 22.6666667,13.9204746 22.6666667,13 L22.6666667,9.66666667 C22.6666667,8.74619208 21.9204746,8 21,8 L17.6666667,8 C16.7461921,8 16,8.74619208 16,9.66666667 L16,13 C16,13.9204746 16.7461921,14.6666667 17.6666667,14.6666667 Z M17.6666667,9.66666667 L21,9.66666667 L21,13 L17.6666667,13 L17.6666667,9.66666667 Z" id="Shape" fill="#9966FF"></path>
            </g>
        </g>
    </g>
</svg>