<svg xmlns="http://www.w3.org/2000/svg" width="22" height="16" viewBox="0 0 22 16">
    <g fill="none" fill-rule="evenodd">
        <path fill="#FFFFFF" d="M-1274-408H166V616h-1440z"/>
        <g stroke="#96F">
            <path stroke-width="2" d="M9.015 15H20a1 1 0 0 0 1-1V2a1 1 0 0 0-1-1L9.236.998c-.383.026-.681.085-.889.167-.185.073-.36.19-.55.376L1.304 7.613l-.008.008c-.224.205-.296.336-.296.393 0 .044.055.142.25.31a3 3 0 0 1 .086.078l6.316 5.915c.074.082.287.226.625.395.314.157.564.252.738.288z"/>
            <path fill="#96F" stroke-width=".5" d="M13.975 7.268l2.121-2.122a.5.5 0 0 1 .707.708l-2.121 2.12 2.121 2.122a.5.5 0 0 1-.707.707l-2.121-2.121-2.121 2.121a.5.5 0 0 1-.708-.707l2.122-2.121-2.122-2.121a.5.5 0 0 1 .708-.708l2.12 2.122z"/>
        </g>
    </g>
</svg>
