<?xml version="1.0" encoding="UTF-8"?>
<svg width="32px" height="32px" viewBox="0 0 32 32" version="1.1" xmlns="http://www.w3.org/2000/svg" xmlns:xlink="http://www.w3.org/1999/xlink">
    <!-- Generator: sketchtool 51.2 (57519) - http://www.bohemiancoding.com/sketch -->
    <title>AA51E332-9704-4605-A6CB-FA489495F018</title>
    <desc>Created with sketchtool.</desc>
    <defs></defs>
    <g id="Symbols" stroke="none" stroke-width="1" fill="none" fill-rule="evenodd">
        <g id="mob/ic/3ยบ/upload">
            <g>
                <rect id="area" fill-rule="nonzero" x="0" y="0" width="32" height="32"></rect>
                <path d="M16,8 C14.2883044,8 12.5673065,8.64234588 11.2622283,9.92647059 C10.2916696,10.8814518 9.70328915,12.0661247 9.45380437,13.3014659 C6.92119785,13.7849012 5,15.9612071 5,18.5882424 C5,21.5686894 7.47093481,24.0000071 10.5,24.0000071 L22.2173913,24.0000071 C24.8545457,24.0000071 27,21.8889718 27,19.2941247 C27,16.8451365 25.0826044,14.8515129 22.6508152,14.63236 C22.6620544,12.9290424 22.0472022,11.2222424 20.730287,9.92647059 C19.4263565,8.64339294 17.7116957,8 16,8 Z" id="Shape" stroke="#9966FF" stroke-width="2"></path>
                <path d="M16.3478358,14 C16.1086576,14 15.9822054,14.0757176 15.8621141,14.1838118 L13.2316793,16.5367529 C12.9279597,16.8141176 12.9332445,17.2642588 13.1868184,17.5367529 C13.4404163,17.8092471 13.9248945,17.8289647 14.2031228,17.5808706 L15.6304445,16.3014588 L15.6304445,19.8235294 C15.6304445,20.2133647 15.9515728,20.5294118 16.3478358,20.5294118 C16.7441228,20.5294118 17.0652271,20.2133647 17.0652271,19.8235294 L17.0652271,16.3014588 L18.4925489,17.5808706 C18.7707771,17.8289647 19.2406445,17.7953412 19.5088532,17.5367529 C19.7914815,17.2642588 19.7397337,16.7875529 19.4639924,16.5367529 L16.8335576,14.1838118 C16.6914663,14.0557882 16.5870141,14 16.3478358,14 Z" id="Path" stroke="#9966FF" stroke-width="0.3" fill="#9966FF" fill-rule="nonzero"></path>
            </g>
        </g>
    </g>
</svg>