<?xml version="1.0" encoding="UTF-8"?>
<svg width="32px" height="32px" viewBox="0 0 32 32" version="1.1" xmlns="http://www.w3.org/2000/svg" xmlns:xlink="http://www.w3.org/1999/xlink">
    <!-- Generator: sketchtool 51.2 (57519) - http://www.bohemiancoding.com/sketch -->
    <title>1A97F428-2A14-4370-8C16-9749050206DB</title>
    <desc>Created with sketchtool.</desc>
    <defs></defs>
    <g id="Symbols" stroke="none" stroke-width="1" fill="none" fill-rule="evenodd">
        <g id="mob/ic/1ยบ/docs">
            <g>
                <rect id="area" fill-rule="nonzero" x="0" y="0" width="32" height="32"></rect>
                <g id="shape" transform="translate(5.000000, 4.000000)" fill="#9966FF">
                    <rect id="Rectangle-Copy-2" fill-rule="nonzero" transform="translate(13.000000, 13.500000) rotate(-45.000000) translate(-13.000000, -13.500000) " x="12" y="10" width="2" height="7" rx="1"></rect>
                    <rect id="Rectangle-Copy-3" fill-rule="nonzero" transform="translate(9.000000, 13.500000) rotate(-315.000000) translate(-9.000000, -13.500000) " x="8" y="10" width="2" height="7" rx="1"></rect>
                    <path d="M19.649123,0 L6.736844,0 C6.15583532,0.00201593617 5.61687558,0.308704685 5.31087927,0.811428571 L0.819651786,5.38285714 C0.310314063,5.69296103 -0.00107129832,6.25304343 2.76963388e-06,6.85714286 L2.76963388e-06,22.2857143 C2.76963388e-06,23.2324881 0.754049409,24 1.68421308,24 L19.649123,24 C20.5792867,24 21.3333333,23.2324881 21.3333333,22.2857143 L21.3333333,1.71428571 C21.3333333,0.767511857 20.5792867,0 19.649123,0 Z M5.05263369,3.49714286 L5.05263369,5.14285714 L3.4357918,5.14285714 L5.05263369,3.49714286 Z M19.649123,22.2857143 L1.68421308,22.2857143 L1.68421308,6.91428571 L1.71789728,6.91428571 L1.75158149,6.88 L6.736844,6.88 L6.736844,1.80571429 L6.77052821,1.77142857 L6.77052821,1.73714286 L19.6266669,1.73714286 L19.649123,22.2857143 Z" id="Shape" transform="translate(10.666667, 12.000000) scale(-1, 1) translate(-10.666667, -12.000000) "></path>
                </g>
            </g>
        </g>
    </g>
</svg>