<svg xmlns="http://www.w3.org/2000/svg" width="32" height="32" viewBox="0 0 32 32">
    <g fill="none" fill-rule="evenodd">
        <path d="M0 0h32v32H0z"/>
        <path stroke="#96F" stroke-width="2" d="M14.015 23H25a1 1 0 0 0 1-1V10a1 1 0 0 0-1-1l-10.764-.002c-.383.026-.681.085-.889.167-.185.073-.36.19-.55.376l-6.493 6.072-.008.008c-.224.205-.296.336-.296.393 0 .044.055.142.25.31a3 3 0 0 1 .086.078l6.316 5.915c.074.082.287.226.625.395.314.157.564.252.738.288z"/>
        <path fill="#96F" stroke="#96F" stroke-width=".5" d="M18.975 15.268l2.121-2.122a.5.5 0 0 1 .707.708l-2.121 2.12 2.121 2.122a.5.5 0 0 1-.707.707l-2.121-2.121-2.121 2.121a.5.5 0 0 1-.708-.707l2.122-2.121-2.122-2.121a.5.5 0 0 1 .708-.708l2.12 2.122z"/>
    </g>
</svg>
