<svg xmlns="http://www.w3.org/2000/svg" width="32" height="32" viewBox="0 0 32 32">
    <g fill="none" fill-rule="evenodd">
        <path d="M0 0h32v32H0z"/>
        <g transform="translate(8 8)">
            <circle cx="8" cy="8" r="8" fill="#F66" transform="matrix(-1 0 0 1 16 0)"/>
            <path fill="#FFF" stroke="#FFF" stroke-width=".5" d="M7.975 7.268l2.121-2.122a.5.5 0 0 1 .707.708l-2.121 2.12 2.121 2.122a.5.5 0 0 1-.707.707L7.975 8.682l-2.121 2.121a.5.5 0 0 1-.708-.707l2.122-2.121-2.122-2.121a.5.5 0 1 1 .708-.708l2.12 2.122z"/>
        </g>
    </g>
</svg>
