<?xml version="1.0" encoding="UTF-8"?>
<svg width="10px" height="11px" viewBox="0 0 10 11" version="1.1" xmlns="http://www.w3.org/2000/svg" xmlns:xlink="http://www.w3.org/1999/xlink">
    <!-- Generator: sketchtool 51.3 (57544) - http://www.bohemiancoding.com/sketch -->
    <title>CF90AF8F-59AD-4A61-9C9C-E01E06C67186</title>
    <desc>Created with sketchtool.</desc>
    <defs></defs>
    <g id="MVP-Mob" stroke="none" stroke-width="1" fill="none" fill-rule="evenodd">
        <g id="01-mobile/apolice-01" transform="translate(-204.000000, -230.000000)" fill="#ACBEC7" stroke="#ACBEC7" stroke-width="0.5">
            <g id="Flag-Copy" transform="translate(205.000000, 231.000000)">
                <path d="M6.89726381,3.18204878 L7.9083933,1.40019512 C8.03197282,1.18272307 8.03042311,0.916083388 7.90432408,0.700056855 C7.77822506,0.484030321 7.54658421,0.351179594 7.29608518,0.351219512 L0.703802429,0.351219512 C0.703802429,0.157246332 0.546250889,0 0.351901215,0 C0.15755154,0 0,0.157246332 0,0.351219512 L0,9.24878049 C0,9.44275367 0.15755154,9.6 0.351901215,9.6 C0.546250889,9.6 0.703802429,9.44275367 0.703802429,9.24878049 L0.703802429,6.20487805 L7.2726251,6.20487805 C7.51629948,6.20454568 7.74246431,6.07843654 7.87049324,5.87150775 C7.99852217,5.66457896 8.01019683,5.40627625 7.90135527,5.18868293 L6.89726381,3.18204878 Z M0.703802429,5.50243902 L0.703802429,1.05365854 L7.2726251,1.05365854 L6.083199,3.16097561 L7.25620305,5.50243902 L0.703802429,5.50243902 Z" id="Shape"></path>
            </g>
        </g>
    </g>
</svg>