<?xml version="1.0" encoding="UTF-8"?>
<svg width="12px" height="11px" viewBox="0 0 12 11" version="1.1" xmlns="http://www.w3.org/2000/svg" xmlns:xlink="http://www.w3.org/1999/xlink">
    <!-- Generator: sketchtool 51.3 (57544) - http://www.bohemiancoding.com/sketch -->
    <title>46735E1D-BB98-4025-89A4-F0401FCB4C03</title>
    <desc>Created with sketchtool.</desc>
    <defs></defs>
    <g id="MVP-Mob" stroke="none" stroke-width="1" fill="none" fill-rule="evenodd">
        <g id="01-mobile/apolice-01" transform="translate(-286.000000, -230.000000)" fill="#ACBEC7" stroke="#ACBEC7" stroke-width="0.5">
            <path d="M293.470221,231 L293.470221,231.564293 L290.530404,231.564293 L290.530404,231 L288.770514,231 L288.770514,231.564293 L287,231.564293 L287,240 L297,240 L297,231.564293 L295.24011,231.564293 L295.24011,231 L293.470221,231 Z M294.059559,232.683316 L294.649522,232.683316 L294.649522,231.564293 L294.059559,231.564293 L294.059559,232.683316 Z M289.350478,232.683316 L289.940441,232.683316 L289.940441,231.564293 L289.350478,231.564293 L289.350478,232.683316 Z M295.24011,232.119022 L296.410037,232.119022 L296.410037,233.859724 L287.589963,233.859724 L287.589963,232.119022 L288.770514,232.119022 L290.530404,232.119022 L293.470221,232.119022 L295.24011,232.119022 Z M287.589963,239.435707 L296.410037,239.435707 L296.410037,234.413855 L287.589963,234.413855 L287.589963,239.435707 Z" id="Fill-1-Copy-4"></path>
        </g>
    </g>
</svg>