<svg xmlns="http://www.w3.org/2000/svg" width="35" height="39" viewBox="0 0 35 39">
    <g fill="none" fill-rule="evenodd" stroke="#FFF">
        <path stroke-width="1.7" d="M3.558 1l27.752.036C32.446 1 33.402 2.377 33.4 3.308v32.05c0 1.459-1.145 2.642-2.558 2.642H3.558C2.145 38 1 36.817 1 35.357V3.643C1 2.183 2.145 1 3.558 1z"/>
        <g stroke-width="2">
            <path d="M16.206 21.148c1.45 1.53 3.8 1.53 5.25 0l3.28-3.463c1.45-1.53 1.45-4.01 0-5.54-1.449-1.53-3.8-1.53-5.25 0l-1.968 2.078"/>
            <path d="M17.674 17.794c-1.45-1.53-3.8-1.53-5.249 0l-3.281 3.463c-1.45 1.53-1.45 4.01 0 5.54 1.45 1.53 3.8 1.53 5.25 0l1.968-2.078"/>
        </g>
    </g>
</svg>
