<svg xmlns="http://www.w3.org/2000/svg" width="32" height="32" viewBox="0 0 32 32">
    <g fill="none" fill-rule="evenodd">
        <path d="M0 0h32v32H0z"/>
        <path fill="#96F" d="M24.65 4H11.736a1.678 1.678 0 0 0-1.426.811L5.82 9.383c-.51.31-.821.87-.82 1.474v15.429C5 27.232 5.754 28 6.684 28H24.65c.93 0 1.684-.768 1.684-1.714V5.714C26.333 4.768 25.58 4 24.65 4zM10.052 7.497v1.646H8.436l1.617-1.646zm14.596 18.789H6.684V10.914h.034l.034-.034h4.985V5.806l.034-.035v-.034h12.856l.022 20.549z"/>
        <path fill="#96F" d="M21.217 17H10.783c-.433 0-.783.298-.783.667 0 .368.35.666.783.666h10.434c.433 0 .783-.298.783-.666 0-.369-.35-.667-.783-.667zM19.867 21H10.8c-.442 0-.8.298-.8.667 0 .368.358.666.8.666h9.067c.441 0 .8-.298.8-.666 0-.369-.359-.667-.8-.667zM17.667 14.667H21c.92 0 1.667-.747 1.667-1.667V9.667C22.667 8.747 21.92 8 21 8h-3.333C16.747 8 16 8.746 16 9.667V13c0 .92.746 1.667 1.667 1.667zm0-5H21V13h-3.333V9.667z"/>
    </g>
</svg>
