<svg xmlns="http://www.w3.org/2000/svg" width="32" height="32" viewBox="0 0 32 32">
    <g fill="none" fill-rule="evenodd">
        <path d="M0 0h32v32H0z"/>
        <path fill="#96F" d="M12.4 4H5.8A1.8 1.8 0 0 0 4 5.8v6.6a1.8 1.8 0 0 0 1.8 1.8h6.6a1.8 1.8 0 0 0 1.8-1.8V5.8A1.8 1.8 0 0 0 12.4 4zm0 8.4H5.8V5.8h6.6v6.6zM25.6 4H19a1.8 1.8 0 0 0-1.8 1.8v6.6a1.8 1.8 0 0 0 1.8 1.8h6.6a1.8 1.8 0 0 0 1.8-1.8V5.8A1.8 1.8 0 0 0 25.6 4zm0 8.4H19V5.8h6.6v6.6zM12.4 17.2H5.8A1.8 1.8 0 0 0 4 19v6.6a1.8 1.8 0 0 0 1.8 1.8h6.6a1.8 1.8 0 0 0 1.8-1.8V19a1.8 1.8 0 0 0-1.8-1.8zm0 8.4H5.8V19h6.6v6.6zM25.6 17.2H19a1.8 1.8 0 0 0-1.8 1.8v6.6a1.8 1.8 0 0 0 1.8 1.8h6.6a1.8 1.8 0 0 0 1.8-1.8V19a1.8 1.8 0 0 0-1.8-1.8zm0 8.4H19V19h6.6v6.6z"/>
    </g>
</svg>
