<svg xmlns="http://www.w3.org/2000/svg" width="32" height="32" viewBox="0 0 32 32">
    <defs>
        <path id="a" d="M0 0h32v32H0z"/>
    </defs>
    <g fill="none" fill-rule="evenodd">
        <path fill="#96F" stroke="#96F" stroke-width=".5" d="M16 4C9.373 4 4 9.373 4 16s5.373 12 12 12 12-5.373 12-12S22.627 4 16 4zm0 22.364c-5.724 0-10.364-4.64-10.364-10.364 0-5.724 4.64-10.364 10.364-10.364 5.724 0 10.364 4.64 10.364 10.364 0 5.724-4.64 10.364-10.364 10.364z"/>
        <path fill="#96F" stroke="#96F" stroke-width=".7" d="M20.615 15.31l-3.849.077-.063-4.042a.703.703 0 1 0-1.406.027l.077 4.001-4.002-.076a.703.703 0 1 0-.026 1.406l4.04.063-.075 3.849a.703.703 0 1 0 1.405.026l.09-3.889 3.889-.089a.703.703 0 0 0 .623-.65.703.703 0 0 0-.703-.703z"/>
    </g>
</svg>
