<?xml version="1.0"?><svg xmlns="http://www.w3.org/2000/svg" width="27" height="35" viewBox="0 0 27 35">
  <g fill="none" fill-rule="nonzero">
    <g stroke="#FFF" stroke-linejoin="round" stroke-width="2">
      <path stroke-linecap="round" d="M1 1h16.618L26 9.738V34H1z"/>
      <path d="M17 1v9h8"/>
    </g>
    <path fill="#FFF" d="M21.558 20.915c-.412.118-1.017.131-1.665.04a8.149 8.149 0 0 1-2.104-.607c1.244-.175 2.21-.121 3.035.162.196.067.517.247.734.405zm-6.943-1.104l-.15.039c-.335.088-.661.174-.975.25l-.423.105c-.852.208-1.723.421-2.583.675.327-.763.63-1.534.928-2.288.22-.558.445-1.128.677-1.69.118.188.241.376.37.566.583.86 1.316 1.655 2.156 2.343zm-2.167-8.6c.056.94-.154 1.846-.462 2.715-.38-1.074-.556-2.26-.082-3.217.122-.246.221-.377.286-.446.1.15.231.483.258.948zM8.002 23.13c-.213.37-.43.714-.653 1.04-.538.784-1.418 1.624-1.87 1.624-.044 0-.098-.007-.176-.087-.051-.052-.06-.088-.057-.138.015-.289.41-.802.982-1.278a9.687 9.687 0 0 1 1.774-1.16zm14.996-2.175c-.07-.96-1.74-1.577-1.757-1.583-.646-.221-1.348-.329-2.145-.329-.854 0-1.774.12-2.957.387a10.114 10.114 0 0 1-2.64-2.625c-.299-.441-.568-.882-.803-1.313.573-1.327 1.09-2.754.996-4.351C13.616 9.86 13.019 9 12.207 9c-.557 0-1.037.4-1.427 1.187-.695 1.405-.512 3.203.544 5.348a73 73 0 0 0-1.076 2.628c-.426 1.078-.864 2.191-1.358 3.25-1.387.53-2.525 1.174-3.474 1.964-.622.516-1.371 1.306-1.414 2.13-.02.389.117.745.396 1.03.297.303.67.463 1.081.463 1.356 0 2.66-1.802 2.907-2.163a19.4 19.4 0 0 0 1.421-2.471c1.15-.402 2.377-.703 3.565-.993l.426-.105c.32-.078.652-.165.993-.256.361-.094.732-.192 1.11-.285 1.22.751 2.532 1.24 3.812 1.42 1.078.152 2.035.064 2.683-.263.583-.293.616-.747.602-.928z"/>
  </g>
</svg>