<?xml version="1.0" encoding="UTF-8"?>
<svg width="32px" height="32px" viewBox="0 0 32 32" version="1.1" xmlns="http://www.w3.org/2000/svg" xmlns:xlink="http://www.w3.org/1999/xlink">
    <!-- Generator: sketchtool 51.2 (57519) - http://www.bohemiancoding.com/sketch -->
    <title>4D095573-996F-4778-90DC-73F3C8C8581B</title>
    <desc>Created with sketchtool.</desc>
    <defs></defs>
    <g id="Symbols" stroke="none" stroke-width="1" fill="none" fill-rule="evenodd">
        <g id="mob/ic/1ยบ/percentage-off">
            <g>
                <rect id="area" fill-rule="nonzero" x="0" y="0" width="32" height="32"></rect>
                <path d="M16,4 C9.372583,4 4,9.372583 4,16 C4,22.627417 9.372583,28 16,28 C22.627417,28 28,22.627417 28,16 C28,9.372583 22.627417,4 16,4 L16,4 Z M16,26.3636364 C10.2763217,26.3636364 5.63636364,21.7236783 5.63636364,16 C5.63636364,10.2763217 10.2763217,5.63636364 16,5.63636364 C21.7236783,5.63636364 26.3636364,10.2763217 26.3636364,16 C26.3636364,21.7236783 21.7236783,26.3636364 16,26.3636364 Z" id="Shape" fill="#ACBEC7"></path>
                <path d="M15.7931034,12.8965517 C15.7931034,11.2968304 14.4962731,10 12.8965517,10 C11.2968304,10 10,11.2968304 10,12.8965517 C10,14.4962731 11.2968304,15.7931034 12.8965517,15.7931034 C14.4962731,15.7931034 15.7931034,14.4962731 15.7931034,12.8965517 L15.7931034,12.8965517 Z M11.737931,12.8965517 C11.737931,12.2566632 12.2566632,11.737931 12.8965517,11.737931 C13.5364403,11.737931 14.0551724,12.2566632 14.0551724,12.8965517 C14.0551724,13.5364403 13.5364403,14.0551724 12.8965517,14.0551724 C12.2566632,14.0551724 11.737931,13.5364403 11.737931,12.8965517 Z" id="Shape" fill="#ACBEC7"></path>
                <path d="M19.8965517,17 C18.2968304,17 17,18.2968304 17,19.8965517 C17,21.4962731 18.2968304,22.7931034 19.8965517,22.7931034 C21.4962731,22.7931034 22.7931034,21.4962731 22.7931034,19.8965517 C22.7931034,18.2968304 21.4962731,17 19.8965517,17 Z M19.8965517,21.0551724 C19.2566632,21.0551724 18.737931,20.5364403 18.737931,19.8965517 C18.737931,19.2566632 19.2566632,18.737931 19.8965517,18.737931 C20.5364403,18.737931 21.0551724,19.2566632 21.0551724,19.8965517 C21.0551724,20.5364403 20.5364403,21.0551724 19.8965517,21.0551724 Z" id="Shape" fill="#ACBEC7"></path>
                <path d="M22.166668,10.2471251 C21.8367575,9.91762495 21.3023019,9.91762495 20.9723914,10.2471251 L10.2689696,20.950547 C10.0428985,21.1612022 9.94983956,21.4784572 10.0262999,21.7778526 C10.1027602,22.077248 10.3365451,22.3110329 10.6359405,22.3874932 C10.9353359,22.4639535 11.2525909,22.3708946 11.4632462,22.1448235 L22.166668,11.4414017 C22.4961682,11.1114912 22.4961682,10.5770356 22.166668,10.2471251 L22.166668,10.2471251 Z" id="Shape" fill="#ACBEC7"></path>
            </g>
        </g>
    </g>
</svg>