<svg xmlns="http://www.w3.org/2000/svg" width="18" height="18" viewBox="0 0 18 18">
    <g fill="none" fill-rule="evenodd" stroke="#F66" transform="translate(1 1)">
        <circle cx="8" cy="8" r="8" stroke-width="2" transform="matrix(-1 0 0 1 16 0)"/>
        <path fill="#F66" stroke-width=".7" d="M10.827 5.187a.527.527 0 0 0-.745 0l-2 2.081-2.178-2.11a.527.527 0 1 0-.73.76L7.335 8 5.173 10.08a.527.527 0 1 0 .731.76l2.177-2.11 2 2.082a.527.527 0 1 0 .76-.732l-2.014-2.11 2.014-2.11a.527.527 0 0 0-.014-.674z"/>
    </g>
</svg>
