<svg xmlns="http://www.w3.org/2000/svg" xmlns:xlink="http://www.w3.org/1999/xlink" width="32" height="32" viewBox="0 0 32 32">
    <defs>
        <path id="a" d="M0 0h32v32H0z"/>
    </defs>
    <g fill="none" fill-rule="evenodd">
        <mask id="b" fill="#fff">
            <use xlink:href="#a"/>
        </mask>
        <path fill="#96F" fill-rule="nonzero" stroke="#96F" stroke-width=".667" d="M20.314 10.107c-2.81-2.81-7.397-2.81-10.207 0-2.81 2.81-2.81 7.398 0 10.207a7.154 7.154 0 0 0 5.104 2.114 7.21 7.21 0 0 0 4.536-1.598l2.938 2.938c.155.155.361.232.542.232.18 0 .386-.077.541-.232.31-.31.31-.799 0-1.083l-2.938-2.938a7.21 7.21 0 0 0 1.598-4.536 7.198 7.198 0 0 0-2.114-5.104zm-9.13 9.194a5.747 5.747 0 0 1 0-8.128A5.703 5.703 0 0 1 15.257 9.5c1.488 0 2.95.549 4.072 1.673C20.426 12.27 21 13.708 21 15.25c0 1.542-.6 2.98-1.67 4.077C18.258 20.425 16.796 21 15.256 21c-1.54-.026-3.003-.601-4.073-1.699z" mask="url(#b)"/>
    </g>
</svg>
