<svg xmlns="http://www.w3.org/2000/svg" xmlns:xlink="http://www.w3.org/1999/xlink" width="32" height="32" viewBox="0 0 32 32">
    <defs>
        <path id="a" d="M4.643.642a8.443 8.443 0 0 0-2.798 1.82c-.8.786-1.4 1.687-1.805 2.703a.377.377 0 0 0 0 .337 7.74 7.74 0 0 0 1.805 2.694 8.52 8.52 0 0 0 2.782 1.813c1.076.438 2.2.658 3.373.658 1.172 0 2.296-.22 3.373-.658a8.49 8.49 0 0 0 2.78-1.813c.8-.78 1.403-1.679 1.807-2.694a.377.377 0 0 0 0-.337 7.818 7.818 0 0 0-1.807-2.703 8.408 8.408 0 0 0-2.797-1.82A8.915 8.915 0 0 0 8 0a8.92 8.92 0 0 0-3.357.642zm2.118 6.85a2.53 2.53 0 0 1-.903-.916 2.434 2.434 0 0 1-.336-1.25c0-.45.111-.865.336-1.244.223-.38.526-.681.903-.906A2.393 2.393 0 0 1 8 2.839c.448 0 .863.113 1.246.337.383.225.688.526.912.906.223.38.335.794.335 1.243a2.515 2.515 0 0 1-1.247 2.166A2.418 2.418 0 0 1 8 7.829c-.448 0-.86-.112-1.239-.336z"/>
    </defs>
    <g fill="none" fill-rule="evenodd">
        <path d="M0 0h32v32H0z"/>
        <g transform="translate(8 11)">
            <mask id="b" fill="#fff">
                <use xlink:href="#a"/>
            </mask>
            <use fill="#D8D8D8" stroke="#ACBEC7" xlink:href="#a"/>
            <path fill="#ACBEC7" d="M-8 21h32v-32H-8z" mask="url(#b)"/>
        </g>
    </g>
</svg>
