<svg xmlns="http://www.w3.org/2000/svg" width="24" height="26" viewBox="0 0 24 26">
    <g fill="none" fill-rule="evenodd" stroke="#FFF">
        <path stroke-width="1.6" d="M10.09 7.681a1.2 1.2 0 0 0-1.91.969v9.104a1.2 1.2 0 0 0 1.923.959l6.13-4.615a1.2 1.2 0 0 0-.012-1.927L10.09 7.68z"/>
        <path stroke-width="1.7" d="M2.705 1H15.78c.588.002 4.714.003 4.714.003.619 0 2.107.67 2.107 2.074v20.209A1.71 1.71 0 0 1 20.895 25H2.705A1.71 1.71 0 0 1 1 23.286V2.714A1.71 1.71 0 0 1 2.705 1z"/>
    </g>
</svg>
