<svg xmlns="http://www.w3.org/2000/svg" xmlns:xlink="http://www.w3.org/1999/xlink" width="32" height="32" viewBox="0 0 32 32">
    <defs>
        <path id="a" d="M16 28c6.627 0 12-5.373 12-12S22.627 4 16 4 4 9.373 4 16s5.373 12 12 12z"/>
        <mask id="b" width="24" height="24" x="0" y="0" fill="#fff">
            <use xlink:href="#a"/>
        </mask>
    </defs>
    <g fill="none" fill-rule="evenodd">
        <path d="M0 0h32v32H0z"/>
        <use stroke="#FC3" stroke-dasharray="1" stroke-linecap="square" stroke-width="4" mask="url(#b)" xlink:href="#a"/>
        <path stroke="#FC3" stroke-linecap="round" stroke-linejoin="round" stroke-width="2" d="M16 19.292l2.253 1.245.837.463-.16-.98-.43-2.638 1.823-1.868.677-.694-.936-.143-2.519-.385-1.126-2.4-.42-.892-.418.892-1.126 2.4-2.519.385-.936.143.677.694 1.823 1.868-.43 2.638-.16.98.837-.463z"/>
    </g>
</svg>
